<?xml version="1.0" encoding="UTF-8"?>
<svg id="Layer_1" xmlns="http://www.w3.org/2000/svg" version="1.1" viewBox="0 0 100 100">
  <!-- Generator: Adobe Illustrator 29.6.0, SVG Export Plug-In . SVG Version: 2.1.1 Build 207)  -->
  <defs>
    <style>
      .st0 {
        fill: #ff00b4;
      }
    </style>
  </defs>
  <circle class="st0" cx="50" cy="50" r="27.72"/>
  <path class="st0" d="M48.1,1.18l-6.82,13.75c-.7,1.41.33,3.07,1.9,3.07h13.65c1.58,0,2.6-1.66,1.9-3.07l-6.82-13.75c-.78-1.57-3.03-1.57-3.81,0Z"/>
  <path class="st0" d="M83.17,14.13l-14.55,4.9c-1.49.5-1.94,2.4-.82,3.52l9.65,9.65c1.12,1.12,3.01.67,3.52-.82l4.9-14.55c.56-1.67-1.03-3.25-2.69-2.69Z"/>
  <path class="st0" d="M98.82,48.1l-13.75-6.82c-1.41-.7-3.07.33-3.07,1.9v13.65c0,1.58,1.66,2.6,3.07,1.9l13.75-6.82c1.57-.78,1.57-3.03,0-3.81Z"/>
  <path class="st0" d="M85.87,83.17l-4.9-14.55c-.5-1.49-2.4-1.94-3.52-.82l-9.65,9.65c-1.12,1.12-.67,3.01.82,3.52l14.55,4.9c1.67.56,3.25-1.03,2.69-2.69Z"/>
  <path class="st0" d="M51.9,98.82l6.82-13.75c.7-1.41-.33-3.07-1.9-3.07h-13.65c-1.58,0-2.6,1.66-1.9,3.07l6.82,13.75c.78,1.57,3.03,1.57,3.81,0Z"/>
  <path class="st0" d="M16.83,85.87l14.55-4.9c1.49-.5,1.94-2.4.82-3.52l-9.65-9.65c-1.12-1.12-3.01-.67-3.52.82l-4.9,14.55c-.56,1.67,1.03,3.25,2.69,2.69Z"/>
  <path class="st0" d="M1.18,51.9l13.75,6.82c1.41.7,3.07-.33,3.07-1.9v-13.65c0-1.58-1.66-2.6-3.07-1.9l-13.75,6.82c-1.57.78-1.57,3.03,0,3.81Z"/>
  <path class="st0" d="M14.13,16.83l4.9,14.55c.5,1.49,2.4,1.94,3.52.82l9.65-9.65c1.12-1.12.67-3.01-.82-3.52l-14.55-4.9c-1.67-.56-3.25,1.03-2.69,2.69Z"/>
</svg>